<svg width="1920" height="540" viewBox="0 0 1920 540" fill="none" xmlns="http://www.w3.org/2000/svg">
<path fill-rule="evenodd" clip-rule="evenodd" d="M0 0L80 72C160 144 320 288 480 297C640 306 800 180 960 126C1120 72 1280 90 1440 126C1600 162 1760 216 1840 243L1920 270V540H1840C1760 540 1600 540 1440 540C1280 540 1120 540 960 540C800 540 640 540 480 540C320 540 160 540 80 540H0V0Z" fill="#0099FF"/>
<path fill-rule="evenodd" clip-rule="evenodd" d="M0 0L63.6667 72C127.333 144 254.667 288 382 297C509.333 306 636.667 180 764 126C891.333 72 1018.67 90 1146 126C1273.33 162 1400.67 216 1464.33 243L1528 270V540H1464.33C1400.67 540 1273.33 540 1146 540C1018.67 540 891.333 540 764 540C636.667 540 509.333 540 382 540C254.667 540 127.333 540 63.6667 540H0V0Z" fill="#0099FF" fill-opacity="0.68"/>
</svg>
